<svg xmlns="http://www.w3.org/2000/svg" viewBox="0 0 24 24" fill="none" stroke="currentColor" stroke-width="2" stroke-linecap="round" stroke-linejoin="round">
  <!-- Recommendation/Lightbulb Icon -->
  <path d="M9 13c0 1.5.5 2.5 1.5 3.5s2 1.5 1.5 3" 
    stroke="#F57C00" stroke-width="1.5" fill="none"/>
  <path d="M12 2c-3 0-5 2-5 5 0 2 1 3.5 2 5s1 2.5 1 4v1h4v-1c0-1.5 0-2.5 1-4s2-3 2-5c0-3-2-5-5-5z" 
    stroke="#F57C00" stroke-width="2" fill="rgba(245,124,0,0.05)"/>
  
  <!-- Lightbulb glow lines -->
  <path d="M12 1v1" stroke="#F57C00" stroke-width="1.5"/>
  <path d="M12 21v1" stroke="#F57C00" stroke-width="1.5"/>
  <path d="M4 4l1 1" stroke="#F57C00" stroke-width="1.5"/>
  <path d="M19 19l1 1" stroke="#F57C00" stroke-width="1.5"/>
  <path d="M1 12h1" stroke="#F57C00" stroke-width="1.5"/>
  <path d="M22 12h1" stroke="#F57C00" stroke-width="1.5"/>
  <path d="M4 20l1-1" stroke="#F57C00" stroke-width="1.5"/>
  <path d="M19 5l1-1" stroke="#F57C00" stroke-width="1.5"/>
  
  <!-- Inner glow -->
  <circle cx="12" cy="8" r="2.5" stroke="none" fill="rgba(245,124,0,0.15)"/>
  
  <!-- Sparkle dots -->
  <circle cx="6" cy="6" r="0.5" fill="#F57C00" stroke="none"/>
  <circle cx="18" cy="6" r="0.5" fill="#F57C00" stroke="none"/>
  <circle cx="6" cy="18" r="0.5" fill="#F57C00" stroke="none"/>
  <circle cx="18" cy="18" r="0.5" fill="#F57C00" stroke="none"/>
  
  <!-- Light rays -->
  <path d="M8 5l1-1" stroke="#FFB74D" stroke-width="1" opacity="0.6"/>
  <path d="M16 5l-1-1" stroke="#FFB74D" stroke-width="1" opacity="0.6"/>
  <path d="M5 8l-1-1" stroke="#FFB74D" stroke-width="1" opacity="0.6"/>
  <path d="M19 8l1-1" stroke="#FFB74D" stroke-width="1" opacity="0.6"/>
</svg>